<?xml version="1.0" standalone="no"?>
<!DOCTYPE svg PUBLIC "-//W3C//DTD SVG 20010904//EN"
 "http://www.w3.org/TR/2001/REC-SVG-20010904/DTD/svg10.dtd">
<svg version="1.0" xmlns="http://www.w3.org/2000/svg"
 width="6977.000000pt" height="7171.000000pt" viewBox="0 0 6977.000000 7171.000000"
 preserveAspectRatio="xMidYMid meet">

<g transform="translate(0.000000,7171.000000) scale(0.100000,-0.100000)"
fill="#000000" stroke="none">
<path d="M34005 71690 c-1450 -44 -2716 -152 -4046 -345 -4235 -614 -8311
-2025 -12054 -4173 -1532 -878 -3040 -1907 -4425 -3016 -4501 -3605 -8068
-8263 -10402 -13581 -2240 -5103 -3276 -10684 -3033 -16330 200 -4620 1254
-9123 3112 -13290 402 -901 908 -1918 1371 -2755 2249 -4071 5228 -7633 8802
-10526 3832 -3102 8255 -5342 12965 -6568 3294 -857 6715 -1214 10140 -1060
5455 245 10705 1776 15460 4509 4279 2460 8040 5856 10981 9915 1871 2583
3403 5429 4534 8425 1743 4617 2530 9573 2315 14570 -192 4430 -1166 8743
-2885 12770 -2140 5012 -5365 9451 -9445 13001 -2518 2191 -5356 4021 -8360
5391 -3735 1704 -7718 2713 -11810 2993 -323 22 -755 45 -1155 60 -349 14
-1722 21 -2065 10z m1680 -20 c1715 -44 3303 -196 4942 -475 5597 -953 10882
-3306 15393 -6854 260 -205 676 -541 786 -635 38 -34 124 -106 189 -161 729
-613 1418 -1248 2161 -1990 517 -516 847 -861 1228 -1285 121 -135 223 -247
226 -250 18 -17 433 -497 571 -660 722 -857 1244 -1533 1935 -2505 173 -244
585 -855 803 -1190 84 -130 239 -374 279 -440 24 -38 95 -153 159 -255 63
-102 139 -225 168 -275 28 -49 85 -144 125 -210 40 -66 107 -181 150 -255 43
-74 120 -209 172 -300 53 -91 125 -219 160 -285 36 -66 95 -172 130 -235 218
-386 827 -1584 988 -1940 23 -52 77 -169 120 -260 42 -91 84 -181 93 -200 8
-19 55 -125 105 -235 106 -236 182 -411 182 -418 0 -3 16 -41 36 -84 40 -85
214 -501 214 -510 0 -3 6 -19 14 -36 67 -152 289 -723 474 -1217 129 -345 409
-1167 522 -1530 23 -74 59 -189 80 -255 22 -66 55 -176 75 -245 20 -69 52
-174 70 -235 65 -212 231 -811 300 -1080 31 -121 65 -254 75 -295 149 -577
339 -1441 469 -2130 67 -353 110 -603 201 -1165 72 -443 179 -1268 239 -1845
234 -2220 263 -4550 85 -6800 -87 -1111 -243 -2352 -419 -3350 -3 -14 -12 -65
-20 -115 -9 -49 -19 -110 -24 -135 -5 -25 -15 -74 -21 -110 -6 -36 -15 -85
-20 -110 -5 -25 -18 -97 -30 -160 -55 -300 -121 -622 -170 -832 -5 -24 -30
-137 -55 -253 -25 -115 -52 -235 -60 -265 -8 -30 -16 -66 -19 -80 -5 -29 -31
-140 -51 -220 -8 -30 -17 -68 -19 -85 -7 -38 -151 -612 -172 -685 -9 -30 -24
-86 -34 -125 -131 -508 -424 -1484 -635 -2120 -800 -2398 -1802 -4614 -3080
-6810 -86 -148 -170 -290 -185 -315 -15 -25 -85 -139 -155 -255 -112 -184
-303 -492 -370 -595 -13 -19 -73 -114 -135 -210 -62 -96 -177 -272 -255 -390
-78 -118 -155 -240 -170 -270 -44 -88 -333 -505 -699 -1010 -272 -375 -685
-919 -926 -1220 -546 -682 -961 -1171 -1485 -1749 -71 -79 -157 -174 -189
-210 -33 -36 -87 -95 -121 -131 -34 -36 -144 -153 -245 -260 -219 -233 -1121
-1137 -1331 -1335 -148 -139 -202 -189 -520 -480 -360 -330 -940 -834 -1254
-1090 -27 -22 -65 -54 -84 -71 -92 -80 -580 -469 -888 -706 -826 -639 -1717
-1263 -2568 -1802 -93 -60 -186 -118 -205 -131 -19 -13 -96 -60 -170 -106 -74
-45 -137 -85 -140 -88 -6 -8 -33 -24 -94 -58 -51 -30 -56 -32 -123 -76 -24
-15 -45 -27 -48 -27 -3 0 -29 -15 -58 -33 -29 -18 -59 -36 -67 -40 -8 -4 -28
-16 -45 -27 -16 -11 -39 -24 -50 -30 -11 -6 -33 -19 -50 -30 -16 -11 -43 -26
-60 -34 -16 -9 -59 -34 -95 -56 -36 -22 -76 -45 -90 -52 -14 -7 -47 -27 -75
-44 -27 -17 -77 -46 -110 -64 -33 -18 -78 -43 -100 -56 -22 -13 -60 -34 -85
-47 -78 -41 -145 -79 -155 -87 -5 -4 -48 -28 -95 -53 -254 -133 -325 -171
-330 -178 -3 -4 -41 -25 -85 -47 -44 -21 -118 -60 -165 -84 -1007 -530 -2008
-994 -3090 -1431 -267 -108 -351 -138 -413 -146 -43 -6 -86 -15 -95 -20 -53
-29 -768 -290 -1157 -423 -510 -175 -1131 -373 -1480 -473 -27 -8 -126 -37
-220 -64 -599 -174 -1464 -391 -2160 -542 -218 -47 -783 -159 -1145 -227 -370
-70 -1275 -212 -1570 -246 -25 -3 -115 -15 -200 -26 -619 -79 -1529 -165
-2110 -200 -96 -6 -202 -12 -235 -15 -33 -3 -168 -9 -300 -15 -132 -5 -280
-12 -330 -15 -334 -18 -1062 -27 -1655 -21 -366 4 -687 9 -715 11 -27 2 -135
6 -240 9 -368 12 -1150 57 -1495 87 -308 26 -459 40 -497 44 -23 3 -171 18
-330 35 -158 16 -385 41 -503 56 -291 35 -340 39 -340 27 0 -10 -313 30 -710
91 -3092 477 -6062 1361 -8910 2654 -146 66 -337 154 -425 197 -88 42 -205 97
-260 123 -244 114 -1055 527 -1330 677 -82 45 -190 104 -240 130 -85 45 -317
175 -485 270 -183 104 -741 433 -910 535 -258 158 -310 189 -460 285 -19 12
-61 39 -92 59 -187 117 -339 216 -648 422 -289 192 -469 315 -600 407 -52 37
-111 78 -130 92 -19 13 -57 40 -85 60 -27 19 -66 46 -85 60 -38 26 -123 87
-251 180 -45 33 -91 67 -103 75 -56 39 -452 334 -456 340 -3 3 -75 58 -160
122 -85 63 -185 139 -221 169 -36 30 -81 65 -99 79 -19 14 -48 36 -64 50 -17
14 -60 48 -96 75 -36 27 -67 52 -70 55 -3 3 -75 61 -160 129 -85 69 -157 127
-160 130 -3 4 -39 33 -80 66 -41 32 -77 61 -80 64 -3 4 -32 28 -65 56 -33 27
-65 54 -71 60 -6 5 -30 26 -54 45 -111 89 -330 276 -416 355 -6 5 -37 33 -69
60 -32 28 -63 55 -69 60 -6 6 -27 23 -46 39 -19 16 -71 61 -114 100 -178 159
-201 180 -206 185 -3 3 -25 24 -50 45 -25 22 -92 83 -149 135 -119 109 -118
108 -272 252 -63 58 -127 118 -144 133 -300 274 -1170 1150 -1585 1596 -1197
1285 -2300 2653 -3273 4062 -283 410 -693 1032 -914 1389 -103 166 -270 438
-301 489 -413 694 -764 1317 -1022 1815 -51 99 -96 185 -100 190 -11 15 -395
782 -485 970 -236 491 -407 866 -630 1380 -315 726 -665 1622 -945 2425 -245
702 -485 1466 -690 2200 -191 681 -422 1619 -545 2210 -153 735 -252 1274
-354 1920 -711 4515 -572 9233 403 13665 902 4102 2490 7985 4708 11513 2357
3749 5390 7030 8913 9643 2197 1630 4558 2984 7060 4049 3769 1605 7812 2515
11910 2680 725 30 1544 37 2210 20z"/>
</g>
</svg>
